<svg xmlns="http://www.w3.org/2000/svg" xmlns:xlink="http://www.w3.org/1999/xlink" width="40" height="40" viewBox="0 0 40 40">
  <defs>
    <clipPath id="clip-path">
      <rect width="25" height="18" fill="none"/>
    </clipPath>
  </defs>
  <g id="Burger_Menu_Close_Button" data-name="Burger Menu Button" transform="translate(-320 -95)">
    <rect id="Button" width="40" height="40" rx="8" transform="translate(320 95)" fill="#ba2b26"/>
    <g id="Burger_Menu_Close" data-name="Burger Menu" transform="translate(328 106)" clip-path="url(#clip-path)">
      <path id="Close" d="M8290.086,200.557l-6.918,6.917-6.918-6.917a1.905,1.905,0,0,0-2.693,2.695l6.917,6.917-6.917,6.917a1.905,1.905,0,0,0,2.693,2.695l6.918-6.917,6.918,6.917a1.905,1.905,0,0,0,2.694-2.695l-6.918-6.917,6.918-6.917a1.905,1.905,0,0,0-2.694-2.695Z" transform="translate(-8272.998 -199.998)" fill="#fff"/>
    </g>
  </g>
</svg>