<svg xmlns="http://www.w3.org/2000/svg" width="180" height="180" viewBox="0 0 180 180">
  <path id="Icon_QR_Code" data-name="Icon QR Code" d="M984.275,1276.428v-20.445a5.38,5.38,0,0,1,5.38-5.382H1010.1a5.381,5.381,0,1,1,0,10.762H995.037v15.064a5.381,5.381,0,1,1-10.762,0Zm154.173-25.827h20.445a5.382,5.382,0,0,1,5.382,5.382v20.445a5.38,5.38,0,1,1-10.761,0v-15.064h-15.066a5.381,5.381,0,0,1,0-10.762Zm25.827,154.174v20.446a5.38,5.38,0,0,1-5.382,5.38h-20.445a5.38,5.38,0,0,1,0-10.761h15.066v-15.065a5.38,5.38,0,1,1,10.761,0ZM1010.1,1430.6H989.655a5.379,5.379,0,0,1-5.38-5.38v-20.446a5.381,5.381,0,1,1,10.762,0v15.065H1010.1a5.38,5.38,0,1,1,0,10.761Zm58.467-142.972v39.813a6.636,6.636,0,0,1-6.636,6.636h-39.813a6.635,6.635,0,0,1-6.636-6.636v-39.813a6.635,6.635,0,0,1,6.636-6.637h39.813a6.635,6.635,0,0,1,6.636,6.637Zm-10.9,4.265h-31.282v31.283h31.282Zm72.282,42.184h-39.815a6.636,6.636,0,0,1-6.636-6.636v-39.813a6.636,6.636,0,0,1,6.636-6.637h39.815a6.635,6.635,0,0,1,6.636,6.637v39.813a6.635,6.635,0,0,1-6.636,6.636Zm-4.266-42.184H1094.4v31.284h31.284Zm-57.115,63.75v39.814a6.636,6.636,0,0,1-6.636,6.636h-39.813a6.635,6.635,0,0,1-6.636-6.636v-39.814a6.635,6.635,0,0,1,6.636-6.636h39.813a6.636,6.636,0,0,1,6.636,6.636Zm-10.9,4.266h-31.282v31.283h31.282Zm63.737,33.641h-22.727a6.635,6.635,0,0,1-6.635-6.637v-22.726a6.635,6.635,0,0,1,6.635-6.637H1121.4a6.635,6.635,0,0,1,6.636,6.637v22.726a6.635,6.635,0,0,1-6.636,6.637Zm-2.67-26.692h-17.385v17.384h17.385Zm-3.965,3.964" transform="translate(-984.275 -1250.601)" fill="#ba2b26"/>
</svg>
