<svg xmlns="http://www.w3.org/2000/svg" width="350" height="443.356" viewBox="0 0 350 443.356">
  <path id="PopUp_BG" data-name="PopUp BG" d="M3666,3509.357v-433.8a19.056,19.056,0,0,1-3.313.277c-12.237,0-12.237-9.837-24.474-9.837s-12.237,9.837-24.474,9.837c-12.2,0-12.239-9.775-24.365-9.834l-.054,0h-.054c-12.228,0-12.238,9.822-24.448,9.836-12.211-.014-12.22-9.836-24.448-9.836h-.051c-12.228,0-12.237,9.822-24.448,9.836-12.211-.014-12.22-9.836-24.448-9.836h-.051c-12.228,0-12.237,9.822-24.448,9.836-12.21-.014-12.22-9.836-24.448-9.836h-.049c-12.228,0-12.236,9.823-24.448,9.836-12.212-.013-12.221-9.836-24.45-9.836s-12.237,9.837-24.473,9.837-12.235-9.837-24.471-9.837-12.236,9.837-24.471,9.837a13.06,13.06,0,0,1-4.115-.7v434.221Z" transform="translate(-3315.999 -3066)" fill="#f6f4f1"/>
</svg>
