<svg xmlns="http://www.w3.org/2000/svg" width="29.161" height="30" viewBox="0 0 29.161 30">
  <path id="Nav_Bar_Icon_Call" data-name="Nav Bar Icon Call" d="M1743.429,2237a2.479,2.479,0,0,1-2.486-2.468v-3.956a3.666,3.666,0,0,1,2.526-3.479l5.464-1.8a.67.67,0,0,1,.513.036.665.665,0,0,1-.086,1.229l-5.465,1.8a2.333,2.333,0,0,0-1.608,2.214v3.956a1.14,1.14,0,0,0,1.143,1.134h2.352v-2.075a.672.672,0,0,1,1.344,0v2.075h7.727v-3.755a.672.672,0,0,1,1.344,0v3.755h7.727v-2.075a.672.672,0,0,1,1.344,0v2.075h2.352a1.139,1.139,0,0,0,1.142-1.134v-3.956a2.333,2.333,0,0,0-1.608-2.214l-5.615-1.8a.67.67,0,0,1-.391-.333.658.658,0,0,1-.039-.509.675.675,0,0,1,.848-.426l5.622,1.8a3.667,3.667,0,0,1,2.527,3.479v3.956a2.48,2.48,0,0,1-2.486,2.468Zm15.158-6.048-3.063-1.822-3.064,1.821a.659.659,0,0,1-.658.008.648.648,0,0,1-.332-.564v-4.041a.649.649,0,0,1,.332-.565.66.66,0,0,1,.658.008l3.064,1.821,3.063-1.821a.662.662,0,0,1,.658-.008.649.649,0,0,1,.332.565v4.041a.649.649,0,0,1-.332.565.659.659,0,0,1-.658-.007Zm-1.79-2.578,1.472.875v-1.75Zm-4.019.875,1.472-.875-1.472-.875Zm-2.8-6.687c-.037-.053-.073-.108-.108-.163-.056-.087-.1-.161-.143-.232-.06-.1-.117-.2-.171-.305s-.107-.208-.151-.3l-.051-.11c-.088-.195-.144-.344-.174-.428a3.016,3.016,0,0,1-.39-6.007v-2.177a5.869,5.869,0,0,1,5.884-5.84h8.365a.741.741,0,0,1,.743.737v2.339a6.357,6.357,0,0,1-1.517,4.115v.826a3.016,3.016,0,0,1-.39,6.007c-.031.087-.089.242-.182.446l-.021.048c-.058.125-.131.27-.216.426-.021.039-.042.078-.064.116a6.533,6.533,0,0,1-5.863,3.407A6.441,6.441,0,0,1,1749.974,2222.562Zm.3-3.783a5.252,5.252,0,0,0,10.5,0v-3.3a6.435,6.435,0,0,1-3.434.987h-7.07Zm11.99,0a6.735,6.735,0,0,1-.039.726,1.54,1.54,0,0,0,.039-2.987Zm-14.621-.773a1.554,1.554,0,0,0,1.186,1.5,6.681,6.681,0,0,1-.04-.726v-2.261A1.545,1.545,0,0,0,1747.64,2218.006Zm2.632-5.167v2.15h7.07a4.939,4.939,0,0,0,4.952-4.914v-1.6h-7.623A4.387,4.387,0,0,0,1750.271,2212.839Z" transform="translate(-1740.943 -2206.999)" fill="#c1bfbb"/>
</svg>
