<svg xmlns="http://www.w3.org/2000/svg" width="23.772" height="30.001" viewBox="0 0 23.772 30.001">
  <path id="Nav_Bar_Icon_Orders" data-name="Nav Bar Icon Orders" d="M1487.473,2237.475a3.921,3.921,0,0,1-3.893-3.94v-18.984a3.879,3.879,0,0,1,3.707-3.935h4.621a2.27,2.27,0,0,1,1.4-1.2,2.4,2.4,0,0,1,.585-1.349,2.2,2.2,0,0,1,3.01,0,2.406,2.406,0,0,1,.586,1.349,2.275,2.275,0,0,1,1.394,1.194h4.582a3.92,3.92,0,0,1,3.892,3.939v18.984a3.921,3.921,0,0,1-3.892,3.94Zm-2.192-22.924v18.984a2.208,2.208,0,0,0,2.192,2.219h15.988a2.208,2.208,0,0,0,2.191-2.219v-18.984a2.207,2.207,0,0,0-2.191-2.218h-4.473a2.277,2.277,0,0,1-2.139,1.56h-2.909a2.276,2.276,0,0,1-2.136-1.555h-4.479A2.158,2.158,0,0,0,1485.282,2214.551Zm8.1-2.942a.559.559,0,0,0,.555.562h2.909a.562.562,0,0,0,0-1.124h-2.909A.56.56,0,0,0,1493.384,2211.609Zm.3,20.225a.964.964,0,0,1,0-1.929h3.852a.964.964,0,0,1,0,1.929Zm-2.417-2.83a.964.964,0,0,1,0-1.929h8.686a.964.964,0,0,1,0,1.929Zm2.427-5.764a.964.964,0,0,1,0-1.928h3.829a.964.964,0,0,1,0,1.928Zm-2.427-2.831a.964.964,0,0,1,0-1.929h8.686a.964.964,0,0,1,0,1.929Z" transform="translate(-1483.581 -2207.474)" fill="#c1bfbb"/>
</svg>
