<svg xmlns="http://www.w3.org/2000/svg" width="28.796" height="30" viewBox="0 0 28.796 30">
  <path id="Nav_Bar_Icon_Menu" data-name="Nav Bar Icon Menu" d="M1218.493,2239.915a3.221,3.221,0,0,1-3.2-3.232v-1.042a2.294,2.294,0,0,1,0-4.508v-1.14a2.295,2.295,0,0,1,0-4.508v-1.14a2.294,2.294,0,0,1,0-4.508v-1.14a2.294,2.294,0,0,1,0-4.508v-1.041a3.221,3.221,0,0,1,3.2-3.232h20.524a3.221,3.221,0,0,1,3.2,3.232v23.536a3.221,3.221,0,0,1-3.2,3.232Zm-1.462-26.768v1.041a2.294,2.294,0,0,1,0,4.507v1.141a2.294,2.294,0,0,1,0,4.508v1.14a2.295,2.295,0,0,1,0,4.508v1.14a2.294,2.294,0,0,1,0,4.508v1.042a1.469,1.469,0,0,0,1.462,1.474h20.524a1.469,1.469,0,0,0,1.461-1.474v-23.536a1.469,1.469,0,0,0-1.461-1.474h-20.524A1.469,1.469,0,0,0,1217.031,2213.147Zm-1.866,20.241a.531.531,0,0,0,.528.533h.933a.533.533,0,0,0,0-1.066h-.933A.531.531,0,0,0,1215.166,2233.388Zm0-5.648a.531.531,0,0,0,.528.533h.933a.533.533,0,0,0,0-1.066h-.933A.531.531,0,0,0,1215.166,2227.74Zm0-5.649a.531.531,0,0,0,.528.534h.933a.533.533,0,0,0,0-1.066h-.933A.531.531,0,0,0,1215.166,2222.09Zm0-5.648a.531.531,0,0,0,.528.534h.933a.533.533,0,0,0,0-1.066h-.933A.531.531,0,0,0,1215.166,2216.442Zm16.449,14.122v-12.71a.875.875,0,0,1,.871-.878,3.691,3.691,0,0,1,3.669,3.7v9.886a2.27,2.27,0,1,1-4.54,0Zm1.742,0a.528.528,0,1,0,1.057,0v-3.358h-1.057Zm0-5.116h1.057v-4.77a1.948,1.948,0,0,0-1.057-1.734Zm-8.739,5.116v-6.979a3.709,3.709,0,0,1-1.4-2.907v-2.824a.871.871,0,1,1,1.741,0v2.824a1.949,1.949,0,0,0,1.057,1.735v-4.56a.871.871,0,1,1,1.741,0v4.56a1.951,1.951,0,0,0,1.057-1.735v-2.824a.871.871,0,1,1,1.742,0v2.824a3.712,3.712,0,0,1-1.4,2.907v6.979a2.271,2.271,0,1,1-4.542,0Zm1.742,0a.528.528,0,1,0,1.057,0v-6.221a3.615,3.615,0,0,1-1.057,0Z" transform="translate(-1213.424 -2209.915)" fill="#c1bfbb"/>
</svg>
