<svg xmlns="http://www.w3.org/2000/svg" width="30" height="30" viewBox="0 0 30 30">
  <path id="Button_Icon_QR" data-name="Button Icon QR" d="M984.275,1254.906V1251.5a.9.9,0,0,1,.9-.9h3.408a.9.9,0,1,1,0,1.794h-2.511v2.511a.9.9,0,1,1-1.794,0Zm25.7-4.3h3.408a.9.9,0,0,1,.9.9v3.407a.9.9,0,1,1-1.794,0v-2.511h-2.511a.9.9,0,0,1,0-1.794Zm4.3,25.7v3.408a.9.9,0,0,1-.9.9h-3.408a.9.9,0,0,1,0-1.793h2.511V1276.3a.9.9,0,1,1,1.794,0Zm-25.7,4.3h-3.408a.9.9,0,0,1-.9-.9V1276.3a.9.9,0,1,1,1.794,0v2.511h2.511a.9.9,0,1,1,0,1.793Zm9.745-23.829v6.635a1.106,1.106,0,0,1-1.106,1.106h-6.635a1.106,1.106,0,0,1-1.106-1.106v-6.635a1.106,1.106,0,0,1,1.106-1.106h6.635a1.106,1.106,0,0,1,1.106,1.106Zm-1.817.711h-5.214v5.214h5.214Zm12.047,7.031h-6.636a1.106,1.106,0,0,1-1.106-1.106v-6.635a1.106,1.106,0,0,1,1.106-1.106h6.636a1.106,1.106,0,0,1,1.106,1.106v6.635a1.106,1.106,0,0,1-1.106,1.106Zm-.711-7.031h-5.214v5.214h5.214Zm-9.519,10.625v6.636a1.106,1.106,0,0,1-1.106,1.106h-6.635a1.106,1.106,0,0,1-1.106-1.106v-6.636a1.106,1.106,0,0,1,1.106-1.106h6.635a1.106,1.106,0,0,1,1.106,1.106Zm-1.817.711h-5.214v5.214h5.214Zm10.623,5.607h-3.788a1.106,1.106,0,0,1-1.106-1.106v-3.788a1.106,1.106,0,0,1,1.106-1.106h3.788a1.106,1.106,0,0,1,1.106,1.106v3.788a1.106,1.106,0,0,1-1.106,1.106Zm-.445-4.448h-2.9v2.9h2.9Zm-.661.661" transform="translate(-984.275 -1250.601)" fill="#fff"/>
</svg>
